<svg xmlns="http://www.w3.org/2000/svg" xmlns:xlink="http://www.w3.org/1999/xlink" width="421.88" height="66.93" viewBox="0 0 421.88 66.93"><defs><style>.cls-1{fill:#891345;stroke:#891345;}.cls-1,.cls-2{stroke-linejoin:round;stroke-width:4.1px;}.cls-2{fill:#c2a36e;stroke:#c2a36e;}.cls-3{fill:url(#linear-gradient);}.cls-4{fill:url(#linear-gradient-2);}.cls-5{fill:url(#linear-gradient-3);}.cls-6{fill:url(#linear-gradient-4);}.cls-7{fill:url(#linear-gradient-5);}.cls-8{fill:url(#linear-gradient-6);}.cls-9{fill:url(#linear-gradient-7);}.cls-10{fill:url(#linear-gradient-8);}.cls-11{fill:url(#linear-gradient-9);}.cls-12{fill:url(#linear-gradient-10);}.cls-13{fill:url(#linear-gradient-11);}.cls-14{fill:url(#linear-gradient-12);}.cls-15{fill:url(#linear-gradient-13);}.cls-16{fill:#d71249;}</style><linearGradient id="linear-gradient" x1="73.17" y1="-17.22" x2="78.67" y2="10.28" gradientTransform="translate(-86.96 45.36) scale(1.37)" gradientUnits="userSpaceOnUse"><stop offset="0.38" stop-color="#d71249"/><stop offset="0.53" stop-color="#a11346"/><stop offset="0.59" stop-color="#891345"/></linearGradient><linearGradient id="linear-gradient-2" x1="93.64" y1="-21.49" x2="98.64" y2="6.51" xlink:href="#linear-gradient"/><linearGradient id="linear-gradient-3" x1="126.27" y1="-26.26" x2="129.77" y2="1.24" xlink:href="#linear-gradient"/><linearGradient id="linear-gradient-4" x1="222.3" y1="-32.8" x2="222.3" y2="-4.3" xlink:href="#linear-gradient"/><linearGradient id="linear-gradient-5" x1="359.65" y1="-17.41" x2="356.15" y2="11.09" xlink:href="#linear-gradient"/><linearGradient id="linear-gradient-6" x1="150.33" y1="-29.21" x2="153.33" y2="-1.71" xlink:href="#linear-gradient"/><linearGradient id="linear-gradient-7" x1="172.22" y1="-30.25" x2="173.72" y2="-1.74" xlink:href="#linear-gradient"/><linearGradient id="linear-gradient-8" x1="195.69" y1="-32.31" x2="197.69" y2="-3.81" xlink:href="#linear-gradient"/><linearGradient id="linear-gradient-9" x1="320.51" y1="-24.16" x2="316.51" y2="3.84" xlink:href="#linear-gradient"/><linearGradient id="linear-gradient-10" x1="298.86" y1="-26.76" x2="295.86" y2="0.74" xlink:href="#linear-gradient"/><linearGradient id="linear-gradient-11" x1="339.98" y1="-21.17" x2="337.48" y2="6.83" xlink:href="#linear-gradient"/><linearGradient id="linear-gradient-12" x1="269.82" y1="-23.71" x2="268.82" y2="-2.71" xlink:href="#linear-gradient"/><linearGradient id="linear-gradient-13" x1="250.98" y1="-24.32" x2="251.48" y2="-3.32" xlink:href="#linear-gradient"/></defs><title>Asset 1</title><g id="Layer_2" data-name="Layer 2"><g id="Layer_1-2" data-name="Layer 1"><path class="cls-1" d="M13.1,25.17l-9,1.91a2.91,2.91,0,0,1,2.59,2c.66,1.94,6.39,28.59,6.39,28.59a11.89,11.89,0,0,1,0,3.86,8.48,8.48,0,0,1-1.52,3.13l22.41-4.6a4.15,4.15,0,0,1-2.48-3.13c-.3-2.29-1-8.53-1.43-10.83-.51-2.51-2-5.3-4.79-5.55a4.53,4.53,0,0,0-5.17,3.58c-.22,1.57,1,3.53,2.38,3.56A2.15,2.15,0,0,0,24.7,46.5a2,2,0,0,0-.26-1.94c-.33-.37-1.76.14-1.91-1.27-.09-.89.92-1.91,2.49-1.52s2.57,1.19,3.37,4.55,1,6.87-.35,10.09c-.87,2-2.3,2.76-5.36,3.75a7.42,7.42,0,0,1-3.95,0c-1.05-.4-1.1-1.56-1.59-3.51s-5.54-27.34-5.69-28.4A3.17,3.17,0,0,1,13.1,25.17Z"/><path class="cls-1" d="M48.62,31.05a93.82,93.82,0,0,1,5.19,11.71L39.53,45.25a89.44,89.44,0,0,1,.23-10.89,28.19,28.19,0,0,1,2.7-10.64C43.51,23.91,46.54,27.35,48.62,31.05ZM47.15,18,37.8,20.1s1.91,1.1,1.89,2c0,1.23-1.78,8.74-2,12.43A87.19,87.19,0,0,0,37.71,48c.44,3.7.87,5.4.73,6.34a18.89,18.89,0,0,1-1.15,4.71s1.41-.32,2.64-.64A22.51,22.51,0,0,1,43.1,58s.35.36-1.19-1.6a11.76,11.76,0,0,1-2.14-6.55A16.45,16.45,0,0,1,40,47L54.3,44.35s.18-.17.65,1.94,1.12,5.3.73,6.87a12,12,0,0,1-.94,2.61l3.53-.62c1.91-.34,4.23-.79,4.23-.79a3.45,3.45,0,0,1-1.71-2.14A51.88,51.88,0,0,0,58,41.8a84.32,84.32,0,0,0-7.73-15.63c-.82-1.4-3.08-3.58-3.73-5.88A3.89,3.89,0,0,1,47.15,18Z"/><path class="cls-1" d="M93.09,24.19a92.13,92.13,0,0,1,4.29,12.06L83,37.67A88.48,88.48,0,0,1,84,26.84,28.12,28.12,0,0,1,87.5,16.42C88.53,16.69,91.29,20.35,93.09,24.19Zm-.49-13.1-9.48,1.37s1.82,1.24,1.74,2.11c-.12,1.22-2.43,8.59-3,12.24a88.08,88.08,0,0,0-1,13.49c.17,3.72.47,5.45.27,6.37a19.09,19.09,0,0,1-1.51,4.62s1.43-.21,2.69-.45a22.65,22.65,0,0,1,3.19-.21s.32.38-1.07-1.69a11.66,11.66,0,0,1-1.64-6.69,15.5,15.5,0,0,1,.45-2.78l14.44-1.59s.19-.16.51,2,.71,5.36.21,6.9a12.14,12.14,0,0,1-1.13,2.53s1.78-.17,3.56-.36c1.94-.19,4.28-.46,4.28-.46a3.48,3.48,0,0,1-1.54-2.27,52.62,52.62,0,0,0-2-10.6,84.9,84.9,0,0,0-6.55-16.16c-.71-1.45-2.8-3.79-3.28-6.14A3.94,3.94,0,0,1,92.6,11.09Z"/><path class="cls-1" d="M222.24,17.17a94.58,94.58,0,0,1,2.93,12.47l-14.5-.2a87.12,87.12,0,0,1,2.25-10.66,28.23,28.23,0,0,1,4.63-10C218.54,9.21,220.87,13.15,222.24,17.17Zm1-13.07-9.57.3s1.67,1.43,1.49,2.29c-.26,1.2-3.37,8.26-4.31,11.83a86.74,86.74,0,0,0-2.45,13.3c-.25,3.72-.16,5.47-.46,6.36a18.9,18.9,0,0,1-2,4.43s1.44,0,2.72-.14a21.39,21.39,0,0,1,3.2.14s.27.41-.88-1.81a11.72,11.72,0,0,1-.88-6.82,16,16,0,0,1,.75-2.72l14.54,0s.21-.14.28,2,.12,5.4-.55,6.88a12.31,12.31,0,0,1-1.41,2.39l3.59,0c1.94,0,4.3,0,4.3,0a3.46,3.46,0,0,1-1.29-2.43,52,52,0,0,0-.77-10.75,83.3,83.3,0,0,0-4.7-16.79c-.54-1.52-2.36-4.09-2.58-6.47C222.15,5.33,223.21,4.1,223.21,4.1Z"/><path class="cls-1" d="M409.68,38.12a92.94,92.94,0,0,1,.59,12.79l-14.22-2.86a87.48,87.48,0,0,1,4.18-10,28.05,28.05,0,0,1,6.37-8.95C407.51,29.61,409.08,33.91,409.68,38.12ZM413,25.44,403.57,24s1.37,1.71,1,2.52c-.47,1.14-4.82,7.5-6.4,10.84A87.17,87.17,0,0,0,393.36,50c-.93,3.61-1.15,5.36-1.62,6.18a17.87,17.87,0,0,1-2.79,4s1.44.22,2.71.36a22.19,22.19,0,0,1,3.12.73s.18.46-.53-1.93a11.73,11.73,0,0,1,.38-6.88,15.75,15.75,0,0,1,1.24-2.52l14.28,2.69s.23-.1-.09,2-.89,5.34-1.82,6.66a12.44,12.44,0,0,1-1.82,2.1l3.52.7,4.22.8a3.43,3.43,0,0,1-.81-2.62,51.77,51.77,0,0,0,1.21-10.71A83.38,83.38,0,0,0,413,34.18c-.26-1.59-1.57-4.45-1.34-6.83C411.76,26.46,413,25.44,413,25.44Z"/><path class="cls-1" d="M130.46,46.56a5.45,5.45,0,0,0,.39-1.74c0-.88-.27-1.82-1.12-4.77a19.62,19.62,0,0,0-5.27-7.67c-1.56-1.26-2.95-1.64-5.41-1.7s-2,1-2,1,1,11.26,1.65,12.86A6.72,6.72,0,0,0,121,47.17l-8.82.92a10.25,10.25,0,0,0,1.29-2.6,11.65,11.65,0,0,0,.28-4.26s-2.57-27.13-3-29.14a2.91,2.91,0,0,0-2.35-2.28l5.34-.67s2.82-.21,5.1-.24c5.27-.06,11.9,1.67,12.77,10.12.78,7.54-6.9,10.38-7.44,10.72s4.37,1.15,6.75,4.54a22.2,22.2,0,0,1,3.2,6.22A15.52,15.52,0,0,0,135.44,44a18.85,18.85,0,0,0,1.88,2ZM123,28.31c2-.83,3.4-2.91,2.85-9.77-.51-6.34-3.84-8-6.85-8.06a11.92,11.92,0,0,0-3.87.45L117,29.4A18.92,18.92,0,0,0,123,28.31Z"/><path class="cls-1" d="M163.88,24.43a22.58,22.58,0,0,0-4.07-12.34A9,9,0,0,0,153.05,8a6.77,6.77,0,0,0-6.74,5.21c-.7,2.92-.48,5.54.93,7.44a4.3,4.3,0,0,0,3.77,2,3.62,3.62,0,0,0,2.6-.87,2.46,2.46,0,0,0,.89-1.86,2.5,2.5,0,0,0-.6-1.7,1.33,1.33,0,0,0-.27-.26l0,0-.13-.08a2,2,0,0,0-1-.34,2.23,2.23,0,0,0-2.15,2.3v0c-.64,0-2.26-.31-2.49-2.7-.28-3,.46-5.09,1.54-6.29a4.07,4.07,0,0,1,3.9-1.32c2.26.31,6.12,5,6.3,14.85.14,8.1-.24,10.92-1.14,13.71-.6,1.87-2.39,4.87-5.91,5a6.3,6.3,0,0,1-6.41-3.84c-1.18-2.3-2.55-8.18-2.75-14.68-.17-6,.36-10.26,2.15-13.78a7.82,7.82,0,0,1,4.83-3.93c1.15-.33,1.45,0,1.47-.67,0-.26-1.77-.15-2.9.2a11.14,11.14,0,0,0-6.16,4.21c-2.51,3.08-4.1,8.68-4,14.13.14,7.52,3.18,13.84,6.08,16.86,2.7,2.83,5.18,3.68,7.82,3.61,1.76-.05,5.87-1.18,8.7-6.27C163.93,34.18,164.18,29.18,163.88,24.43Z"/><path class="cls-1" d="M171.32,5.13s2,1,1.77,2.68c-.11,1.18-1.32,8.54-1.91,13.25a73.4,73.4,0,0,0-.35,13.43c.16,2.12.53,5,.24,6.2a10.25,10.25,0,0,1-1.66,2.86l7.65-.34a8.45,8.45,0,0,1-2.45-2c-.89-1.21-2-5.46-2-9.67-.06-10.28.71-13,1-15.26a20,20,0,0,1,1.3-4.31s6.15,11.75,6.77,13.21,1.25,2.54,1.65,2.55.54-.51,1.23-1.94,5.5-14,5.5-14,2.16,3.09,3.51,12a64.45,64.45,0,0,1,.57,13.84,16.49,16.49,0,0,1-.76,3.93,5.48,5.48,0,0,1-1.09,1.42l8.57-.3a5.83,5.83,0,0,1-1.55-1.36c-.15-.22-.52-.46-.6-2-.13-2.24.34-4.61.08-8.69A59.47,59.47,0,0,0,197.07,18c-.95-4.11-1.86-7-2-7.56-.61-1.86-.85-3.05-.43-4a8.42,8.42,0,0,1,1.76-2.06l-8.29.18a5.44,5.44,0,0,1,1.14,1.48,4.56,4.56,0,0,1,.17,3.42c-.28.92-4.22,10.7-4.22,10.7a.56.56,0,0,1-.92-.16c-.26-.46-5.27-10-5.27-10a6.49,6.49,0,0,1-.73-2.52,7.49,7.49,0,0,1,1-2.88Z"/><path class="cls-1" d="M347.12,14.08l-6.65-1A6.33,6.33,0,0,1,342,15.72c.49,1.6-.9,8.94-.9,8.94S339,39.89,339,41.12c0,.36-1.42.47-1.43,1,0,.7.51.89,1,1.43s1.3,4.89,3.05,7a7.72,7.72,0,0,0,5.6,2.9A10.41,10.41,0,0,0,355,51.79a9,9,0,0,0,3.23-3.09,13.07,13.07,0,0,1,1.36-2.2l1.06-.24a.94.94,0,0,0,.16-1.14c-.34-.71-1.28-.2-1.16-1.26.17-1.44,1.78-17.12,2-19a29.08,29.08,0,0,1,1.32-6,5.59,5.59,0,0,1,2.16-2.06l-8.93-1.42s.7,1.06,1,1.6c.85,1.42.24,4.92,0,7s-2.36,19.45-2.36,19.45-1.1,8.31-7.37,7.56c-5.43-.65-5.67-5.39-6-6.63a23.88,23.88,0,0,1,.15-6.67c.74-5.81,2.8-20.34,3.28-21.36A5,5,0,0,1,347.12,14.08Z"/><path class="cls-1" d="M335.34,12.63a1.43,1.43,0,0,0-1.84-.17l-1.7,1.11a10.51,10.51,0,0,0-5.75-3.78,11,11,0,0,0-7.66,1.15c-5.06,2.65-8.92,9.82-9.47,17.18-.59,7.75.59,13.86,4.73,18.41a9.22,9.22,0,0,0,6.77,3.18,10.14,10.14,0,0,0,7.3-2.21,7.11,7.11,0,0,0,2.91-6.39c-.14-1.73-.77-3-2.16-3.47s-2.38-.06-2.25.34a2.92,2.92,0,0,0,.77.94,5.23,5.23,0,0,1,.69,4.24c-.4,1.78-1.82,5-6.95,4.58a5.89,5.89,0,0,1-5.33-3.28c-2.4-4.4-1.71-12-1.21-16.75s2-12.07,4.41-14.66a7.87,7.87,0,0,1,6-2,6.55,6.55,0,0,1,5.59,3.28,6.29,6.29,0,0,1,1.08,5,5.34,5.34,0,0,1-1.79,3.26,3.41,3.41,0,0,1-3.3.58,3.72,3.72,0,0,1-1.09-.69,2.18,2.18,0,0,0,1-1.82,2.23,2.23,0,0,0-2.18-2.28c-1.25,0-2.18.87-2.3,2.45-.18,2.37,1.23,4,3.32,4.82a6.1,6.1,0,0,0,5.15-.81,8.71,8.71,0,0,0,3.14-4.81,6.72,6.72,0,0,0,0-3.95c0-.11-.09-.22-.13-.34l2-1.46A1.28,1.28,0,0,0,335.34,12.63Z"/><path class="cls-1" d="M384.17,20.18c2.34,1.1,5.84,3.94,4.64,10.63s-6.47,6.44-6.07,6.45a11.27,11.27,0,0,1,5.55,10.93,10.74,10.74,0,0,1-6.38,8.68c-2,.79-5,.68-8.57.2-3.17-.42-8.66-1.5-8.66-1.5s.89-1,1.62-1.81a7.27,7.27,0,0,0,1.53-3.39L372,23.19a7.69,7.69,0,0,0-.18-3.69,6.29,6.29,0,0,0-1.15-2S381.71,19,384.17,20.18Zm-9.6,17.17-3,17.45s-.27.25,1.83.7,4.2.62,6.06-.4c2.23-1.21,2.83-2.7,3.58-7,.68-3.91,1.18-6.26-1.51-8.86C379.83,37.59,374.57,37.35,374.57,37.35Zm2.42-17-1.87,14.67a8.89,8.89,0,0,0,1.6.37c1.75.36,3.42.34,4.49-.43,1.71-1.23,2.14-2.59,2.77-6.13.56-3.19.39-6.05-1.43-7.14S377,20.38,377,20.38Z"/><path class="cls-1" d="M274.29,15.63A6.69,6.69,0,0,1,276,18c.24,1.05-1.16,22.75-1.16,22.75a4.9,4.9,0,0,1-.84,2c-.53.52-1.35,1.42-1.35,1.42l18,1.32a13.14,13.14,0,0,1,.57-2.09c.4-1.11.84-2.09.84-2.09a9.26,9.26,0,0,0-2.66,1,9.35,9.35,0,0,1-4.5,1.09c-2.11,0-4.73-.37-4.73-.37s-1-.27-1.14-2.27c-.09-1.84.66-11.84.66-11.84a5,5,0,0,1,1.71-.08,4,4,0,0,1,3,1.38,8.89,8.89,0,0,1,1.4,2.27l.71-8a5.63,5.63,0,0,1-1.76,1.8,5.22,5.22,0,0,1-2.91.73,3.43,3.43,0,0,1-2-.31l.58-8.55s.16-.65,2-.61a20.21,20.21,0,0,1,5.51.52,8.41,8.41,0,0,1,2.73,1.64,9.84,9.84,0,0,1,2.18,2.81l-.26-5.93Z"/><path class="cls-1" d="M253.86,16.36s2.28-1.66,3.73-1.77a8.7,8.7,0,0,1,4.85.91c2,.83,7.65,5.17,7.46,13.86-.23,10.4-7,13.15-8.47,13.64a17.87,17.87,0,0,1-5.54.67c-.92-.16-8.95-.59-8.95-.59a8,8,0,0,0,1.49-1.69,5.31,5.31,0,0,0,.84-2.35s.47-21.06,0-22.78a4.58,4.58,0,0,0-1.92-2.55l6.85.15Zm11.26,8.94c-.31-3.82-1.57-6.49-3.37-8.24a5,5,0,0,0-5.26-.77,3.83,3.83,0,0,0-2.18,3.24,2.9,2.9,0,0,0,1,2.79,2.34,2.34,0,0,0,1.57.43c.08-1.09.37-2,1.23-1.95a1.51,1.51,0,0,1,1.58,1.61A2.37,2.37,0,0,1,258,25a2.84,2.84,0,0,1-2.75-.85,16.12,16.12,0,0,1-1.41-1.48V40.59s.24,1.19,2.47,1.38,5.76-.33,7.77-5.76C265.49,32.42,265.41,28.88,265.12,25.3Z"/><path class="cls-2" d="M11.05,23.12,2.05,25a2.91,2.91,0,0,1,2.59,2C5.3,29,11,55.61,11,55.61a11.91,11.91,0,0,1,0,3.86A8.48,8.48,0,0,1,9.47,62.6L31.88,58a4.15,4.15,0,0,1-2.48-3.12c-.3-2.29-1-8.54-1.43-10.84-.51-2.51-2-5.3-4.79-5.54A4.52,4.52,0,0,0,18,42.06c-.22,1.58,1,3.54,2.37,3.57a2.16,2.16,0,0,0,2.27-1.18,2,2,0,0,0-.26-1.94c-.33-.37-1.76.14-1.91-1.27-.09-.89.92-1.91,2.49-1.52s2.57,1.19,3.37,4.55,1,6.87-.35,10.09c-.87,2-2.3,2.76-5.35,3.74a7.38,7.38,0,0,1-4,0c-1-.4-1.1-1.56-1.58-3.51S9.55,27.3,9.4,26.24A3.16,3.16,0,0,1,11.05,23.12Z"/><path class="cls-2" d="M46.57,29a93.06,93.06,0,0,1,5.18,11.71L37.47,43.2a89.87,89.87,0,0,1,.25-10.88,28.1,28.1,0,0,1,2.69-10.65C41.46,21.86,44.49,25.3,46.57,29ZM45.1,16l-9.35,2.08s1.91,1.1,1.89,2c0,1.23-1.78,8.75-2,12.43a87.18,87.18,0,0,0,0,13.52c.45,3.7.88,5.4.74,6.34A19.19,19.19,0,0,1,35.24,57s1.41-.33,2.64-.65a21.94,21.94,0,0,1,3.18-.45s.34.36-1.2-1.61a11.76,11.76,0,0,1-2.14-6.55A16.29,16.29,0,0,1,38,45L52.25,42.3s.18-.17.66,1.94,1.11,5.3.72,6.87a13,13,0,0,1-.93,2.61l3.52-.62c1.91-.34,4.23-.78,4.23-.78a3.45,3.45,0,0,1-1.7-2.15A52.88,52.88,0,0,0,56,39.75a83.69,83.69,0,0,0-7.73-15.63c-.82-1.39-3.08-3.58-3.73-5.88A3.89,3.89,0,0,1,45.1,16Z"/><path class="cls-2" d="M91,22.14a92.89,92.89,0,0,1,4.3,12.06L80.91,35.62A88.66,88.66,0,0,1,82,24.79a28.12,28.12,0,0,1,3.48-10.42C86.48,14.64,89.24,18.3,91,22.14ZM90.55,9l-9.48,1.37s1.82,1.24,1.73,2.12c-.11,1.22-2.42,8.58-2.94,12.23a85.63,85.63,0,0,0-1,13.49c.17,3.72.47,5.45.27,6.38a18.62,18.62,0,0,1-1.51,4.61s1.43-.21,2.69-.44a21.71,21.71,0,0,1,3.19-.22s.32.38-1.07-1.69a11.73,11.73,0,0,1-1.64-6.69,15.84,15.84,0,0,1,.44-2.78l14.45-1.59s.19-.16.51,2,.72,5.36.21,6.9a12.4,12.4,0,0,1-1.13,2.54l3.57-.37c1.93-.19,4.28-.46,4.28-.46a3.44,3.44,0,0,1-1.55-2.27,51.26,51.26,0,0,0-2-10.59A83.57,83.57,0,0,0,93.09,17.4c-.71-1.45-2.81-3.79-3.28-6.14A3.94,3.94,0,0,1,90.55,9Z"/><path class="cls-2" d="M220.19,15.12a94.58,94.58,0,0,1,2.93,12.47l-14.5-.2a89.24,89.24,0,0,1,2.25-10.65,28.23,28.23,0,0,1,4.63-10C216.49,7.16,218.83,11.1,220.19,15.12Zm1-13.07-9.57.3s1.67,1.43,1.49,2.29c-.26,1.2-3.38,8.26-4.31,11.83a86.74,86.74,0,0,0-2.45,13.3c-.25,3.72-.15,5.47-.46,6.37a19,19,0,0,1-2,4.42s1.45-.05,2.72-.14a21.39,21.39,0,0,1,3.2.14s.27.41-.87-1.8a11.62,11.62,0,0,1-.89-6.83,15.41,15.41,0,0,1,.76-2.71l14.53,0s.21-.14.29,2,.11,5.4-.56,6.88a12.94,12.94,0,0,1-1.41,2.39s1.79,0,3.59,0,4.3,0,4.3,0a3.43,3.43,0,0,1-1.28-2.43,52.28,52.28,0,0,0-.78-10.75,84.12,84.12,0,0,0-4.69-16.79c-.55-1.52-2.37-4.09-2.59-6.47C220.1,3.28,221.16,2.05,221.16,2.05Z"/><path class="cls-2" d="M407.63,36.07a92.94,92.94,0,0,1,.59,12.79L394,46a86.9,86.9,0,0,1,4.17-10,28.23,28.23,0,0,1,6.37-9C405.46,27.56,407,31.86,407.63,36.07ZM411,23.4l-9.47-1.46s1.38,1.71,1.05,2.52c-.48,1.14-4.83,7.5-6.4,10.84a86.07,86.07,0,0,0-4.86,12.62c-.93,3.61-1.15,5.35-1.61,6.18a19.05,19.05,0,0,1-2.79,4s1.43.22,2.7.36a21.81,21.81,0,0,1,3.12.73s.19.46-.53-1.93a11.73,11.73,0,0,1,.38-6.88,15.75,15.75,0,0,1,1.24-2.52l14.28,2.69s.23-.1-.09,2-.89,5.34-1.82,6.66a12.44,12.44,0,0,1-1.82,2.1l3.52.7,4.22.8a3.43,3.43,0,0,1-.81-2.62,51.77,51.77,0,0,0,1.21-10.71A84.32,84.32,0,0,0,411,32.13c-.27-1.59-1.58-4.45-1.36-6.83C409.71,24.41,411,23.4,411,23.4Z"/><path class="cls-2" d="M128.41,44.52a5.55,5.55,0,0,0,.39-1.75c0-.88-.27-1.82-1.12-4.77a19.39,19.39,0,0,0-5.28-7.66c-1.55-1.27-2.94-1.65-5.4-1.71s-2,1-2,1,1,11.27,1.64,12.86a6.72,6.72,0,0,0,2.24,2.62l-8.81.92a10.23,10.23,0,0,0,1.28-2.6,11.65,11.65,0,0,0,.28-4.26s-2.57-27.13-3-29.14a2.93,2.93,0,0,0-2.35-2.28l5.35-.67s2.81-.21,5.09-.24c5.27,0,11.91,1.67,12.77,10.12.77,7.54-6.9,10.38-7.43,10.72s4.36,1.15,6.74,4.54a22.2,22.2,0,0,1,3.2,6.22A14.81,14.81,0,0,0,133.39,42a17.8,17.8,0,0,0,1.88,2Zm-7.49-18.26c2-.83,3.4-2.91,2.85-9.77-.51-6.34-3.85-8-6.85-8.06a11.92,11.92,0,0,0-3.87.45l1.87,18.48A19,19,0,0,0,120.92,26.26Z"/><path class="cls-2" d="M161.83,22.38A22.62,22.62,0,0,0,157.76,10,9,9,0,0,0,151,5.94a6.79,6.79,0,0,0-6.74,5.21c-.7,2.92-.48,5.54.93,7.44a4.27,4.27,0,0,0,3.77,2,3.62,3.62,0,0,0,2.6-.87,2.53,2.53,0,0,0,.29-3.56,1.33,1.33,0,0,0-.27-.26v0l-.13-.08a2,2,0,0,0-1-.34,2.23,2.23,0,0,0-2.16,2.31h0c-.64,0-2.26-.31-2.49-2.7-.28-3,.47-5.08,1.55-6.29a4.06,4.06,0,0,1,3.89-1.32c2.26.31,6.12,5,6.3,14.85.14,8.1-.24,10.93-1.14,13.71-.6,1.87-2.39,4.87-5.91,5A6.3,6.3,0,0,1,144,37.13c-1.17-2.3-2.56-8.18-2.74-14.67-.18-6,.35-10.27,2.14-13.78a7.77,7.77,0,0,1,4.83-3.94c1.15-.32,1.45,0,1.47-.67,0-.26-1.77-.15-2.9.2a11.14,11.14,0,0,0-6.16,4.21c-2.5,3.08-4.1,8.69-4,14.14.14,7.5,3.18,13.83,6.08,16.86,2.7,2.82,5.19,3.67,7.82,3.6,1.76,0,5.87-1.18,8.7-6.27C161.88,32.13,162.13,27.13,161.83,22.38Z"/><path class="cls-2" d="M169.27,3.08s1.95,1,1.78,2.68c-.12,1.18-1.33,8.54-1.92,13.26a73.29,73.29,0,0,0-.35,13.42c.16,2.12.53,5,.24,6.2a10.14,10.14,0,0,1-1.66,2.85l7.65-.33a8.45,8.45,0,0,1-2.45-2c-.89-1.21-2-5.46-2-9.67-.06-10.27.71-13,1.05-15.25a20,20,0,0,1,1.3-4.32s6.15,11.75,6.77,13.22,1.25,2.53,1.65,2.54.54-.51,1.23-1.94,5.5-14,5.5-14,2.16,3.09,3.51,12a63.87,63.87,0,0,1,.57,13.85,16.21,16.21,0,0,1-.76,3.93,5.68,5.68,0,0,1-1.09,1.42l8.57-.31a5.89,5.89,0,0,1-1.55-1.35c-.15-.23-.52-.47-.6-2-.13-2.23.34-4.61.09-8.69A59.92,59.92,0,0,0,195,16c-1-4.11-1.86-7-2-7.56-.61-1.86-.84-3-.43-4a8.3,8.3,0,0,1,1.77-2.07l-8.3.19a5.44,5.44,0,0,1,1.14,1.48,4.58,4.58,0,0,1,.18,3.43c-.29.91-4.23,10.69-4.23,10.69a.56.56,0,0,1-.92-.15c-.26-.46-5.27-10-5.27-10a6.43,6.43,0,0,1-.73-2.52,7.49,7.49,0,0,1,1-2.88Z"/><path class="cls-2" d="M345.07,12l-6.65-1a6.24,6.24,0,0,1,1.52,2.66c.49,1.6-.9,8.94-.9,8.94s-2.1,15.23-2.12,16.46c0,.36-1.41.47-1.43,1,0,.71.51.89,1,1.43s1.3,4.89,3.05,7a7.74,7.74,0,0,0,5.6,2.89A10.45,10.45,0,0,0,353,49.75a9.09,9.09,0,0,0,3.23-3.1,13.07,13.07,0,0,1,1.36-2.2l1.06-.24a1,1,0,0,0,.16-1.14c-.33-.71-1.27-.19-1.16-1.26.17-1.44,1.78-17.12,2-19a28.25,28.25,0,0,1,1.31-6,5.51,5.51,0,0,1,2.16-2.06l-8.93-1.43s.7,1.06,1,1.6c.85,1.42.24,4.92,0,7s-2.36,19.45-2.36,19.45-1.09,8.31-7.37,7.56c-5.43-.65-5.68-5.39-6-6.63a23.88,23.88,0,0,1,.15-6.67c.74-5.81,2.8-20.34,3.28-21.35A5,5,0,0,1,345.07,12Z"/><path class="cls-2" d="M333.29,10.58a1.43,1.43,0,0,0-1.84-.17l-1.7,1.11A10.51,10.51,0,0,0,324,7.74a11,11,0,0,0-7.66,1.15c-5.07,2.66-8.91,9.81-9.47,17.18-.59,7.75.59,13.87,4.73,18.41a9.19,9.19,0,0,0,6.78,3.18,10.13,10.13,0,0,0,7.29-2.21,7.11,7.11,0,0,0,2.91-6.39c-.14-1.73-.77-3-2.17-3.47s-2.37-.05-2.24.35a3,3,0,0,0,.77.94,5.18,5.18,0,0,1,.69,4.22c-.4,1.79-1.82,5-6.95,4.59-3.68-.27-4.82-2.35-5.32-3.28-2.41-4.4-1.71-12-1.21-16.75s2-12.07,4.41-14.66a7.86,7.86,0,0,1,6-2,6.57,6.57,0,0,1,5.59,3.28,6.35,6.35,0,0,1,1.07,5,5.31,5.31,0,0,1-1.79,3.26,3.4,3.4,0,0,1-3.3.58A3.68,3.68,0,0,1,323,20.5a2.24,2.24,0,0,0-1.17-4.11c-1.24,0-2.17.87-2.3,2.45-.18,2.37,1.23,4,3.32,4.82a6.1,6.1,0,0,0,5.15-.81,8.65,8.65,0,0,0,3.14-4.8,6.75,6.75,0,0,0,0-4c0-.11-.09-.23-.12-.34l2-1.46A1.28,1.28,0,0,0,333.29,10.58Z"/><path class="cls-2" d="M382.12,18.12c2.34,1.11,5.84,3.95,4.64,10.65s-6.47,6.44-6.07,6.44a11.27,11.27,0,0,1,5.55,10.93,10.74,10.74,0,0,1-6.38,8.68c-2,.8-5,.68-8.57.21-3.17-.43-8.66-1.51-8.66-1.51s.9-1,1.62-1.81a7.16,7.16,0,0,0,1.53-3.39l4.16-27.17a7.66,7.66,0,0,0-.19-3.7,6.32,6.32,0,0,0-1.14-2S379.67,17,382.12,18.12Zm-9.6,17.18-3,17.45s-.27.26,1.83.7,4.2.62,6.06-.4c2.23-1.21,2.83-2.7,3.58-7,.69-3.91,1.18-6.26-1.51-8.86C377.78,35.55,372.52,35.3,372.52,35.3Zm2.42-17L373.07,33a7,7,0,0,0,1.6.37c1.75.36,3.42.34,4.49-.43,1.71-1.23,2.14-2.59,2.77-6.13.57-3.19.39-6-1.42-7.14S374.94,18.33,374.94,18.33Z"/><path class="cls-2" d="M272.24,13.58A6.69,6.69,0,0,1,273.9,16c.24,1-1.16,22.76-1.16,22.76a5,5,0,0,1-.83,2c-.54.52-1.36,1.42-1.36,1.42l18,1.32a13.14,13.14,0,0,1,.57-2.09c.4-1.11.84-2.09.84-2.09a9.63,9.63,0,0,0-2.66,1,9.35,9.35,0,0,1-4.5,1.09c-2.11-.05-4.73-.37-4.73-.37s-1-.27-1.14-2.26.66-11.84.66-11.84a5,5,0,0,1,1.72-.1,4,4,0,0,1,3,1.39,8.72,8.72,0,0,1,1.4,2.27l.71-8a5.76,5.76,0,0,1-1.76,1.8,5.24,5.24,0,0,1-2.91.73,3.43,3.43,0,0,1-2-.31l.59-8.55s.14-.65,2-.61a20.34,20.34,0,0,1,5.52.52,8.82,8.82,0,0,1,2.73,1.64,9.92,9.92,0,0,1,2.17,2.81l-.26-5.93Z"/><path class="cls-2" d="M251.81,14.31s2.28-1.66,3.73-1.76a8.81,8.81,0,0,1,4.85.89c2,.84,7.65,5.18,7.46,13.87-.23,10.4-7,13.15-8.46,13.64a17.93,17.93,0,0,1-5.55.67c-.92-.15-9-.59-9-.59a7.67,7.67,0,0,0,1.49-1.69,5.36,5.36,0,0,0,.85-2.35s.46-21.06,0-22.78a4.54,4.54,0,0,0-1.92-2.55l6.85.15Zm11.26,8.94c-.31-3.82-1.57-6.49-3.37-8.24a5,5,0,0,0-5.26-.77,3.81,3.81,0,0,0-2.17,3.24,2.88,2.88,0,0,0,1,2.79,2.3,2.3,0,0,0,1.57.43c.09-1.09.37-2,1.23-1.95a1.49,1.49,0,0,1,1.57,1.62A2.34,2.34,0,0,1,256,23a2.81,2.81,0,0,1-2.74-.85,15.46,15.46,0,0,1-1.42-1.48V38.55s.24,1.18,2.47,1.37,5.76-.33,7.77-5.76C263.44,30.37,263.37,26.83,263.07,23.25Z"/><path class="cls-3" d="M11.05,23.12,2.05,25a2.91,2.91,0,0,1,2.59,2C5.3,29,11,55.61,11,55.61a11.91,11.91,0,0,1,0,3.86A8.48,8.48,0,0,1,9.47,62.6L31.88,58a4.15,4.15,0,0,1-2.48-3.12c-.3-2.29-1-8.54-1.43-10.84-.51-2.51-2-5.3-4.79-5.54A4.52,4.52,0,0,0,18,42.06c-.22,1.58,1,3.54,2.37,3.57a2.16,2.16,0,0,0,2.27-1.18,2,2,0,0,0-.26-1.94c-.33-.37-1.76.14-1.91-1.27-.09-.89.92-1.91,2.49-1.52s2.57,1.19,3.37,4.55,1,6.87-.35,10.09c-.87,2-2.3,2.76-5.35,3.74a7.38,7.38,0,0,1-4,0c-1-.4-1.1-1.56-1.58-3.51S9.55,27.3,9.4,26.24A3.16,3.16,0,0,1,11.05,23.12Z"/><path class="cls-4" d="M46.57,29a93.06,93.06,0,0,1,5.18,11.71L37.47,43.2a89.87,89.87,0,0,1,.25-10.88,28.1,28.1,0,0,1,2.69-10.65C41.46,21.86,44.49,25.3,46.57,29ZM45.1,16l-9.35,2.08s1.91,1.1,1.89,2c0,1.23-1.78,8.75-2,12.43a87.18,87.18,0,0,0,0,13.52c.45,3.7.88,5.4.74,6.34A19.19,19.19,0,0,1,35.24,57s1.41-.33,2.64-.65a21.94,21.94,0,0,1,3.18-.45s.34.36-1.2-1.61a11.76,11.76,0,0,1-2.14-6.55A16.29,16.29,0,0,1,38,45L52.25,42.3s.18-.17.66,1.94,1.11,5.3.72,6.87a13,13,0,0,1-.93,2.61l3.52-.62c1.91-.34,4.23-.78,4.23-.78a3.45,3.45,0,0,1-1.7-2.15A52.88,52.88,0,0,0,56,39.75a83.69,83.69,0,0,0-7.73-15.63c-.82-1.39-3.08-3.58-3.73-5.88A3.89,3.89,0,0,1,45.1,16Z"/><path class="cls-5" d="M91,22.14a92.89,92.89,0,0,1,4.3,12.06L80.91,35.62A88.66,88.66,0,0,1,82,24.79a28.12,28.12,0,0,1,3.48-10.42C86.48,14.64,89.24,18.3,91,22.14ZM90.55,9l-9.48,1.37s1.82,1.24,1.73,2.12c-.11,1.22-2.42,8.58-2.94,12.23a85.63,85.63,0,0,0-1,13.49c.17,3.72.47,5.45.27,6.38a18.62,18.62,0,0,1-1.51,4.61s1.43-.21,2.69-.44a21.71,21.71,0,0,1,3.19-.22s.32.38-1.07-1.69a11.73,11.73,0,0,1-1.64-6.69,15.84,15.84,0,0,1,.44-2.78l14.45-1.59s.19-.16.51,2,.72,5.36.21,6.9a12.4,12.4,0,0,1-1.13,2.54l3.57-.37c1.93-.19,4.28-.46,4.28-.46a3.44,3.44,0,0,1-1.55-2.27,51.26,51.26,0,0,0-2-10.59A83.57,83.57,0,0,0,93.09,17.4c-.71-1.45-2.81-3.79-3.28-6.14A3.94,3.94,0,0,1,90.55,9Z"/><path class="cls-6" d="M220.19,15.12a94.58,94.58,0,0,1,2.93,12.47l-14.5-.2a89.24,89.24,0,0,1,2.25-10.65,28.23,28.23,0,0,1,4.63-10C216.49,7.16,218.83,11.1,220.19,15.12Zm1-13.07-9.57.3s1.67,1.43,1.49,2.29c-.26,1.2-3.38,8.26-4.31,11.83a86.74,86.74,0,0,0-2.45,13.3c-.25,3.72-.15,5.47-.46,6.37a19,19,0,0,1-2,4.42s1.45-.05,2.72-.14a21.39,21.39,0,0,1,3.2.14s.27.41-.87-1.8a11.62,11.62,0,0,1-.89-6.83,15.41,15.41,0,0,1,.76-2.71l14.53,0s.21-.14.29,2,.11,5.4-.56,6.88a12.94,12.94,0,0,1-1.41,2.39s1.79,0,3.59,0,4.3,0,4.3,0a3.43,3.43,0,0,1-1.28-2.43,52.28,52.28,0,0,0-.78-10.75,84.12,84.12,0,0,0-4.69-16.79c-.55-1.52-2.37-4.09-2.59-6.47C220.1,3.28,221.16,2.05,221.16,2.05Z"/><path class="cls-7" d="M407.63,36.07a92.94,92.94,0,0,1,.59,12.79L394,46a86.9,86.9,0,0,1,4.17-10,28.23,28.23,0,0,1,6.37-9C405.46,27.56,407,31.86,407.63,36.07ZM411,23.4l-9.47-1.46s1.38,1.71,1.05,2.52c-.48,1.14-4.83,7.5-6.4,10.84a86.07,86.07,0,0,0-4.86,12.62c-.93,3.61-1.15,5.35-1.61,6.18a19.05,19.05,0,0,1-2.79,4s1.43.22,2.7.36a21.81,21.81,0,0,1,3.12.73s.19.46-.53-1.93a11.73,11.73,0,0,1,.38-6.88,15.75,15.75,0,0,1,1.24-2.52l14.28,2.69s.23-.1-.09,2-.89,5.34-1.82,6.66a12.44,12.44,0,0,1-1.82,2.1l3.52.7,4.22.8a3.43,3.43,0,0,1-.81-2.62,51.77,51.77,0,0,0,1.21-10.71A84.32,84.32,0,0,0,411,32.13c-.27-1.59-1.58-4.45-1.36-6.83C409.71,24.41,411,23.4,411,23.4Z"/><path class="cls-8" d="M128.41,44.52a5.55,5.55,0,0,0,.39-1.75c0-.88-.27-1.82-1.12-4.77a19.39,19.39,0,0,0-5.28-7.66c-1.55-1.27-2.94-1.65-5.4-1.71s-2,1-2,1,1,11.27,1.64,12.86a6.72,6.72,0,0,0,2.24,2.62l-8.81.92a10.23,10.23,0,0,0,1.28-2.6,11.65,11.65,0,0,0,.28-4.26s-2.57-27.13-3-29.14a2.93,2.93,0,0,0-2.35-2.28l5.35-.67s2.81-.21,5.09-.24c5.27,0,11.91,1.67,12.77,10.12.77,7.54-6.9,10.38-7.43,10.72s4.36,1.15,6.74,4.54a22.2,22.2,0,0,1,3.2,6.22A14.81,14.81,0,0,0,133.39,42a17.8,17.8,0,0,0,1.88,2Zm-7.49-18.26c2-.83,3.4-2.91,2.85-9.77-.51-6.34-3.85-8-6.85-8.06a11.92,11.92,0,0,0-3.87.45l1.87,18.48A19,19,0,0,0,120.92,26.26Z"/><path class="cls-9" d="M161.83,22.38A22.62,22.62,0,0,0,157.76,10,9,9,0,0,0,151,5.94a6.79,6.79,0,0,0-6.74,5.21c-.7,2.92-.48,5.54.93,7.44a4.27,4.27,0,0,0,3.77,2,3.62,3.62,0,0,0,2.6-.87,2.53,2.53,0,0,0,.29-3.56,1.33,1.33,0,0,0-.27-.26v0l-.13-.08a2,2,0,0,0-1-.34,2.23,2.23,0,0,0-2.16,2.31h0c-.64,0-2.26-.31-2.49-2.7-.28-3,.47-5.08,1.55-6.29a4.06,4.06,0,0,1,3.89-1.32c2.26.31,6.12,5,6.3,14.85.14,8.1-.24,10.93-1.14,13.71-.6,1.87-2.39,4.87-5.91,5A6.3,6.3,0,0,1,144,37.13c-1.17-2.3-2.56-8.18-2.74-14.67-.18-6,.35-10.27,2.14-13.78a7.77,7.77,0,0,1,4.83-3.94c1.15-.32,1.45,0,1.47-.67,0-.26-1.77-.15-2.9.2a11.14,11.14,0,0,0-6.16,4.21c-2.5,3.08-4.1,8.69-4,14.14.14,7.5,3.18,13.83,6.08,16.86,2.7,2.82,5.19,3.67,7.82,3.6,1.76,0,5.87-1.18,8.7-6.27C161.88,32.13,162.13,27.13,161.83,22.38Z"/><path class="cls-10" d="M169.27,3.08s1.95,1,1.78,2.68c-.12,1.18-1.33,8.54-1.92,13.26a73.29,73.29,0,0,0-.35,13.42c.16,2.12.53,5,.24,6.2a10.14,10.14,0,0,1-1.66,2.85l7.65-.33a8.45,8.45,0,0,1-2.45-2c-.89-1.21-2-5.46-2-9.67-.06-10.27.71-13,1.05-15.25a20,20,0,0,1,1.3-4.32s6.15,11.75,6.77,13.22,1.25,2.53,1.65,2.54.54-.51,1.23-1.94,5.5-14,5.5-14,2.16,3.09,3.51,12a63.87,63.87,0,0,1,.57,13.85,16.21,16.21,0,0,1-.76,3.93,5.68,5.68,0,0,1-1.09,1.42l8.57-.31a5.89,5.89,0,0,1-1.55-1.35c-.15-.23-.52-.47-.6-2-.13-2.23.34-4.61.09-8.69A59.92,59.92,0,0,0,195,16c-1-4.11-1.86-7-2-7.56-.61-1.86-.84-3-.43-4a8.3,8.3,0,0,1,1.77-2.07l-8.3.19a5.44,5.44,0,0,1,1.14,1.48,4.58,4.58,0,0,1,.18,3.43c-.29.91-4.23,10.69-4.23,10.69a.56.56,0,0,1-.92-.15c-.26-.46-5.27-10-5.27-10a6.43,6.43,0,0,1-.73-2.52,7.49,7.49,0,0,1,1-2.88Z"/><path class="cls-11" d="M345.07,12l-6.65-1a6.24,6.24,0,0,1,1.52,2.66c.49,1.6-.9,8.94-.9,8.94s-2.1,15.23-2.12,16.46c0,.36-1.41.47-1.43,1,0,.71.51.89,1,1.43s1.3,4.89,3.05,7a7.74,7.74,0,0,0,5.6,2.89A10.45,10.45,0,0,0,353,49.75a9.09,9.09,0,0,0,3.23-3.1,13.07,13.07,0,0,1,1.36-2.2l1.06-.24a1,1,0,0,0,.16-1.14c-.33-.71-1.27-.19-1.16-1.26.17-1.44,1.78-17.12,2-19a28.25,28.25,0,0,1,1.31-6,5.51,5.51,0,0,1,2.16-2.06l-8.93-1.43s.7,1.06,1,1.6c.85,1.42.24,4.92,0,7s-2.36,19.45-2.36,19.45-1.09,8.31-7.37,7.56c-5.43-.65-5.68-5.39-6-6.63a23.88,23.88,0,0,1,.15-6.67c.74-5.81,2.8-20.34,3.28-21.35A5,5,0,0,1,345.07,12Z"/><path class="cls-12" d="M333.29,10.58a1.43,1.43,0,0,0-1.84-.17l-1.7,1.11A10.51,10.51,0,0,0,324,7.74a11,11,0,0,0-7.66,1.15c-5.07,2.66-8.91,9.81-9.47,17.18-.59,7.75.59,13.87,4.73,18.41a9.19,9.19,0,0,0,6.78,3.18,10.13,10.13,0,0,0,7.29-2.21,7.11,7.11,0,0,0,2.91-6.39c-.14-1.73-.77-3-2.17-3.47s-2.37-.05-2.24.35a3,3,0,0,0,.77.94,5.18,5.18,0,0,1,.69,4.22c-.4,1.79-1.82,5-6.95,4.59-3.68-.27-4.82-2.35-5.32-3.28-2.41-4.4-1.71-12-1.21-16.75s2-12.07,4.41-14.66a7.86,7.86,0,0,1,6-2,6.57,6.57,0,0,1,5.59,3.28,6.35,6.35,0,0,1,1.07,5,5.31,5.31,0,0,1-1.79,3.26,3.4,3.4,0,0,1-3.3.58A3.68,3.68,0,0,1,323,20.5a2.24,2.24,0,0,0-1.17-4.11c-1.24,0-2.17.87-2.3,2.45-.18,2.37,1.23,4,3.32,4.82a6.1,6.1,0,0,0,5.15-.81,8.65,8.65,0,0,0,3.14-4.8,6.75,6.75,0,0,0,0-4c0-.11-.09-.23-.12-.34l2-1.46A1.28,1.28,0,0,0,333.29,10.58Z"/><path class="cls-13" d="M382.12,18.12c2.34,1.11,5.84,3.95,4.64,10.65s-6.47,6.44-6.07,6.44a11.27,11.27,0,0,1,5.55,10.93,10.74,10.74,0,0,1-6.38,8.68c-2,.8-5,.68-8.57.21-3.17-.43-8.66-1.51-8.66-1.51s.9-1,1.62-1.81a7.16,7.16,0,0,0,1.53-3.39l4.16-27.17a7.66,7.66,0,0,0-.19-3.7,6.32,6.32,0,0,0-1.14-2S379.67,17,382.12,18.12Zm-9.6,17.18-3,17.45s-.27.26,1.83.7,4.2.62,6.06-.4c2.23-1.21,2.83-2.7,3.58-7,.69-3.91,1.18-6.26-1.51-8.86C377.78,35.55,372.52,35.3,372.52,35.3Zm2.42-17L373.07,33a7,7,0,0,0,1.6.37c1.75.36,3.42.34,4.49-.43,1.71-1.23,2.14-2.59,2.77-6.13.57-3.19.39-6-1.42-7.14S374.94,18.33,374.94,18.33Z"/><path class="cls-14" d="M272.24,13.58A6.69,6.69,0,0,1,273.9,16c.24,1-1.16,22.76-1.16,22.76a5,5,0,0,1-.83,2c-.54.52-1.36,1.42-1.36,1.42l18,1.32a13.14,13.14,0,0,1,.57-2.09c.4-1.11.84-2.09.84-2.09a9.63,9.63,0,0,0-2.66,1,9.35,9.35,0,0,1-4.5,1.09c-2.11-.05-4.73-.37-4.73-.37s-1-.27-1.14-2.26.66-11.84.66-11.84a5,5,0,0,1,1.72-.1,4,4,0,0,1,3,1.39,8.72,8.72,0,0,1,1.4,2.27l.71-8a5.76,5.76,0,0,1-1.76,1.8,5.24,5.24,0,0,1-2.91.73,3.43,3.43,0,0,1-2-.31l.59-8.55s.14-.65,2-.61a20.34,20.34,0,0,1,5.52.52,8.82,8.82,0,0,1,2.73,1.64,9.92,9.92,0,0,1,2.17,2.81l-.26-5.93Z"/><path class="cls-15" d="M251.81,14.31s2.28-1.66,3.73-1.76a8.81,8.81,0,0,1,4.85.89c2,.84,7.65,5.18,7.46,13.87-.23,10.4-7,13.15-8.46,13.64a17.93,17.93,0,0,1-5.55.67c-.92-.15-9-.59-9-.59a7.67,7.67,0,0,0,1.49-1.69,5.36,5.36,0,0,0,.85-2.35s.46-21.06,0-22.78a4.54,4.54,0,0,0-1.92-2.55l6.85.15Zm11.26,8.94c-.31-3.82-1.57-6.49-3.37-8.24a5,5,0,0,0-5.26-.77,3.81,3.81,0,0,0-2.17,3.24,2.88,2.88,0,0,0,1,2.79,2.3,2.3,0,0,0,1.57.43c.09-1.09.37-2,1.23-1.95a1.49,1.49,0,0,1,1.57,1.62A2.34,2.34,0,0,1,256,23a2.81,2.81,0,0,1-2.74-.85,15.46,15.46,0,0,1-1.42-1.48V38.55s.24,1.18,2.47,1.37,5.76-.33,7.77-5.76C263.44,30.37,263.37,26.83,263.07,23.25Z"/><path class="cls-16" d="M421.88,28.18a2,2,0,1,1-2-2A2,2,0,0,1,421.88,28.18Zm-3.53,0a1.53,1.53,0,0,0,1.53,1.57,1.5,1.5,0,0,0,1.5-1.56,1.52,1.52,0,1,0-3,0Zm1.21,1h-.46v-2a6.36,6.36,0,0,1,.76-.05,1,1,0,0,1,.67.15.49.49,0,0,1,.2.42.51.51,0,0,1-.4.47v0c.19.06.28.22.34.48a1.52,1.52,0,0,0,.15.48h-.48a1.51,1.51,0,0,1-.16-.48c0-.2-.15-.3-.41-.3h-.21Zm0-1.1h.22c.25,0,.45-.09.45-.29s-.13-.3-.42-.3l-.25,0Z"/></g></g></svg>